<mxfile host="app.diagrams.net" modified="2020-04-16T20:49:57.239Z" agent="5.0 (Windows)" etag="FYGC897mx6flVwbfFEGs" version="12.9.13" type="github">
  <diagram id="MUwsVrfa6CfVyeA1z7Bb" name="Page-1">
    <mxGraphModel dx="3220" dy="1282" grid="1" gridSize="10" guides="1" tooltips="1" connect="1" arrows="1" fold="1" page="1" pageScale="1" pageWidth="850" pageHeight="1100" math="0" shadow="0">
      <root>
        <mxCell id="0" />
        <mxCell id="1" parent="0" />
        <mxCell id="sc8BlCsDntj5IzmVDa04-35" style="edgeStyle=orthogonalEdgeStyle;rounded=0;orthogonalLoop=1;jettySize=auto;html=1;entryX=0.002;entryY=0.475;entryDx=0;entryDy=0;entryPerimeter=0;" edge="1" parent="1" source="sc8BlCsDntj5IzmVDa04-36" target="sc8BlCsDntj5IzmVDa04-40">
          <mxGeometry relative="1" as="geometry" />
        </mxCell>
        <mxCell id="sc8BlCsDntj5IzmVDa04-36" value="START" style="strokeWidth=2;html=1;shape=mxgraph.flowchart.start_1;whiteSpace=wrap;" vertex="1" parent="1">
          <mxGeometry x="-830" y="295" width="100" height="60" as="geometry" />
        </mxCell>
        <mxCell id="sc8BlCsDntj5IzmVDa04-37" value="" style="group" vertex="1" connectable="0" parent="1">
          <mxGeometry x="-670" y="120" width="200" height="410" as="geometry" />
        </mxCell>
        <mxCell id="sc8BlCsDntj5IzmVDa04-38" value="" style="group;rotation=0;" vertex="1" connectable="0" parent="sc8BlCsDntj5IzmVDa04-37">
          <mxGeometry y="20" width="200" height="390" as="geometry" />
        </mxCell>
        <mxCell id="sc8BlCsDntj5IzmVDa04-39" value="" style="verticalLabelPosition=bottom;verticalAlign=top;html=1;shadow=0;dashed=0;strokeWidth=1;strokeColor=none;shape=rect;fillColor=#669900;" vertex="1" parent="sc8BlCsDntj5IzmVDa04-38">
          <mxGeometry y="30" width="200" height="330" as="geometry" />
        </mxCell>
        <mxCell id="sc8BlCsDntj5IzmVDa04-40" value="" style="verticalLabelPosition=bottom;verticalAlign=top;html=1;shadow=0;dashed=0;strokeWidth=1;shape=mxgraph.android.phone2;strokeColor=#c0c0c0;" vertex="1" parent="sc8BlCsDntj5IzmVDa04-38">
          <mxGeometry width="200" height="390" as="geometry" />
        </mxCell>
        <mxCell id="sc8BlCsDntj5IzmVDa04-41" value="" style="whiteSpace=wrap;html=1;shape=mxgraph.basic.isocube;isoAngle=15;" vertex="1" parent="sc8BlCsDntj5IzmVDa04-38">
          <mxGeometry x="72.5" y="167.5" width="55" height="55" as="geometry" />
        </mxCell>
        <mxCell id="sc8BlCsDntj5IzmVDa04-103" value="" style="group" vertex="1" connectable="0" parent="1">
          <mxGeometry x="-370" y="140" width="200" height="390" as="geometry" />
        </mxCell>
        <mxCell id="sc8BlCsDntj5IzmVDa04-83" value="" style="strokeWidth=1;shadow=0;dashed=0;align=center;html=1;shape=mxgraph.mockup.forms.rrect;rSize=0;strokeColor=#999999;fillColor=#ffffff;" vertex="1" parent="sc8BlCsDntj5IzmVDa04-103">
          <mxGeometry x="3" y="30" width="194" height="330" as="geometry" />
        </mxCell>
        <mxCell id="sc8BlCsDntj5IzmVDa04-84" value="Sign In" style="strokeWidth=1;shadow=0;dashed=0;align=center;html=1;shape=mxgraph.mockup.forms.anchor;fontSize=12;fontColor=#666666;align=left;resizeWidth=1;spacingLeft=0;" vertex="1" parent="sc8BlCsDntj5IzmVDa04-83">
          <mxGeometry width="95" height="20" relative="1" as="geometry">
            <mxPoint x="10" y="10" as="offset" />
          </mxGeometry>
        </mxCell>
        <mxCell id="sc8BlCsDntj5IzmVDa04-85" value="" style="shape=line;strokeColor=#ddeeff;strokeWidth=2;html=1;resizeWidth=1;" vertex="1" parent="sc8BlCsDntj5IzmVDa04-83">
          <mxGeometry width="171" height="10" relative="1" as="geometry">
            <mxPoint x="10" y="30" as="offset" />
          </mxGeometry>
        </mxCell>
        <mxCell id="sc8BlCsDntj5IzmVDa04-86" value="User Name:" style="strokeWidth=1;shadow=0;dashed=0;align=center;html=1;shape=mxgraph.mockup.forms.anchor;fontSize=12;fontColor=#666666;align=left;resizeWidth=1;spacingLeft=0;" vertex="1" parent="sc8BlCsDntj5IzmVDa04-83">
          <mxGeometry width="95" height="20" relative="1" as="geometry">
            <mxPoint x="10" y="40" as="offset" />
          </mxGeometry>
        </mxCell>
        <mxCell id="sc8BlCsDntj5IzmVDa04-87" value="johndoe" style="strokeWidth=1;shadow=0;dashed=0;align=center;html=1;shape=mxgraph.mockup.forms.rrect;rSize=0;strokeColor=#999999;fontColor=#666666;align=left;spacingLeft=5;resizeWidth=1;" vertex="1" parent="sc8BlCsDntj5IzmVDa04-83">
          <mxGeometry width="142.5" height="25" relative="1" as="geometry">
            <mxPoint x="10" y="60" as="offset" />
          </mxGeometry>
        </mxCell>
        <mxCell id="sc8BlCsDntj5IzmVDa04-88" value="Password:" style="strokeWidth=1;shadow=0;dashed=0;align=center;html=1;shape=mxgraph.mockup.forms.anchor;fontSize=12;fontColor=#666666;align=left;resizeWidth=1;spacingLeft=0;" vertex="1" parent="sc8BlCsDntj5IzmVDa04-83">
          <mxGeometry width="95" height="20" relative="1" as="geometry">
            <mxPoint x="10" y="95" as="offset" />
          </mxGeometry>
        </mxCell>
        <mxCell id="sc8BlCsDntj5IzmVDa04-89" value="********" style="strokeWidth=1;shadow=0;dashed=0;align=center;html=1;shape=mxgraph.mockup.forms.rrect;rSize=0;strokeColor=#999999;fontColor=#666666;align=left;spacingLeft=5;resizeWidth=1;" vertex="1" parent="sc8BlCsDntj5IzmVDa04-83">
          <mxGeometry width="142.5" height="25" relative="1" as="geometry">
            <mxPoint x="10" y="115" as="offset" />
          </mxGeometry>
        </mxCell>
        <mxCell id="sc8BlCsDntj5IzmVDa04-90" value="SIGN IN" style="strokeWidth=1;shadow=0;dashed=0;align=center;html=1;shape=mxgraph.mockup.forms.rrect;rSize=5;strokeColor=none;fontColor=#ffffff;fillColor=#66bbff;fontSize=16;fontStyle=1;" vertex="1" parent="sc8BlCsDntj5IzmVDa04-83">
          <mxGeometry y="1" width="80" height="30" relative="1" as="geometry">
            <mxPoint x="20" y="-150" as="offset" />
          </mxGeometry>
        </mxCell>
        <mxCell id="sc8BlCsDntj5IzmVDa04-91" value="Forgot Password?" style="strokeWidth=1;shadow=0;dashed=0;align=center;html=1;shape=mxgraph.mockup.forms.anchor;fontSize=12;fontColor=#9999ff;align=left;spacingLeft=0;fontStyle=4;resizeWidth=1;" vertex="1" parent="sc8BlCsDntj5IzmVDa04-83">
          <mxGeometry y="1" width="142.5" height="20" relative="1" as="geometry">
            <mxPoint x="10" y="-110" as="offset" />
          </mxGeometry>
        </mxCell>
        <mxCell id="sc8BlCsDntj5IzmVDa04-92" value="" style="shape=line;strokeColor=#ddeeff;strokeWidth=2;html=1;resizeWidth=1;" vertex="1" parent="sc8BlCsDntj5IzmVDa04-83">
          <mxGeometry y="1" width="171" height="10" relative="1" as="geometry">
            <mxPoint x="10" y="-90" as="offset" />
          </mxGeometry>
        </mxCell>
        <mxCell id="sc8BlCsDntj5IzmVDa04-93" value="New User" style="strokeWidth=1;shadow=0;dashed=0;align=center;html=1;shape=mxgraph.mockup.forms.anchor;fontSize=12;fontColor=#666666;align=left;spacingLeft=0;resizeWidth=1;" vertex="1" parent="sc8BlCsDntj5IzmVDa04-83">
          <mxGeometry y="1" width="142.5" height="20" relative="1" as="geometry">
            <mxPoint x="10" y="-70" as="offset" />
          </mxGeometry>
        </mxCell>
        <mxCell id="sc8BlCsDntj5IzmVDa04-94" value="SIGN UP" style="strokeWidth=1;shadow=0;dashed=0;align=center;html=1;shape=mxgraph.mockup.forms.rrect;rSize=5;strokeColor=none;fontColor=#ffffff;fillColor=#66bbff;fontSize=16;fontStyle=1;" vertex="1" parent="sc8BlCsDntj5IzmVDa04-83">
          <mxGeometry y="1" width="80" height="30" relative="1" as="geometry">
            <mxPoint x="20" y="-50" as="offset" />
          </mxGeometry>
        </mxCell>
        <mxCell id="sc8BlCsDntj5IzmVDa04-102" value="" style="verticalLabelPosition=bottom;verticalAlign=top;html=1;shadow=0;dashed=0;strokeWidth=1;shape=mxgraph.android.phone2;strokeColor=#c0c0c0;" vertex="1" parent="sc8BlCsDntj5IzmVDa04-103">
          <mxGeometry width="200" height="390" as="geometry" />
        </mxCell>
        <mxCell id="sc8BlCsDntj5IzmVDa04-104" style="edgeStyle=orthogonalEdgeStyle;rounded=0;orthogonalLoop=1;jettySize=auto;html=1;entryX=-0.002;entryY=0.5;entryDx=0;entryDy=0;entryPerimeter=0;" edge="1" parent="1" source="sc8BlCsDntj5IzmVDa04-39" target="sc8BlCsDntj5IzmVDa04-102">
          <mxGeometry relative="1" as="geometry" />
        </mxCell>
        <mxCell id="sc8BlCsDntj5IzmVDa04-108" style="edgeStyle=orthogonalEdgeStyle;rounded=0;orthogonalLoop=1;jettySize=auto;html=1;entryX=0;entryY=0.5;entryDx=0;entryDy=0;" edge="1" parent="1" source="sc8BlCsDntj5IzmVDa04-105" target="sc8BlCsDntj5IzmVDa04-107">
          <mxGeometry relative="1" as="geometry" />
        </mxCell>
        <mxCell id="sc8BlCsDntj5IzmVDa04-111" value="True" style="edgeLabel;html=1;align=center;verticalAlign=middle;resizable=0;points=[];" vertex="1" connectable="0" parent="sc8BlCsDntj5IzmVDa04-108">
          <mxGeometry x="-0.2182" y="1" relative="1" as="geometry">
            <mxPoint as="offset" />
          </mxGeometry>
        </mxCell>
        <mxCell id="sc8BlCsDntj5IzmVDa04-109" style="edgeStyle=orthogonalEdgeStyle;rounded=0;orthogonalLoop=1;jettySize=auto;html=1;entryX=0.46;entryY=-0.008;entryDx=0;entryDy=0;entryPerimeter=0;" edge="1" parent="1" source="sc8BlCsDntj5IzmVDa04-105" target="sc8BlCsDntj5IzmVDa04-102">
          <mxGeometry relative="1" as="geometry">
            <Array as="points">
              <mxPoint x="-50" y="90" />
              <mxPoint x="-278" y="90" />
            </Array>
          </mxGeometry>
        </mxCell>
        <mxCell id="sc8BlCsDntj5IzmVDa04-110" value="False" style="edgeLabel;html=1;align=center;verticalAlign=middle;resizable=0;points=[];" vertex="1" connectable="0" parent="sc8BlCsDntj5IzmVDa04-109">
          <mxGeometry x="-0.7861" y="-2" relative="1" as="geometry">
            <mxPoint as="offset" />
          </mxGeometry>
        </mxCell>
        <mxCell id="sc8BlCsDntj5IzmVDa04-105" value="&lt;div&gt;Login&lt;/div&gt;&lt;div&gt;Control&lt;br&gt;&lt;/div&gt;" style="rhombus;whiteSpace=wrap;html=1;" vertex="1" parent="1">
          <mxGeometry x="-90" y="295" width="80" height="80" as="geometry" />
        </mxCell>
        <mxCell id="sc8BlCsDntj5IzmVDa04-106" style="edgeStyle=orthogonalEdgeStyle;rounded=0;orthogonalLoop=1;jettySize=auto;html=1;entryX=0;entryY=0.5;entryDx=0;entryDy=0;" edge="1" parent="1" source="sc8BlCsDntj5IzmVDa04-90" target="sc8BlCsDntj5IzmVDa04-105">
          <mxGeometry relative="1" as="geometry" />
        </mxCell>
        <mxCell id="sc8BlCsDntj5IzmVDa04-107" value="&lt;div&gt;Check&lt;/div&gt;&lt;div&gt;Department&lt;/div&gt;&lt;div&gt;and Redirect&lt;br&gt;&lt;/div&gt;" style="shape=hexagon;perimeter=hexagonPerimeter2;whiteSpace=wrap;html=1;" vertex="1" parent="1">
          <mxGeometry x="110" y="300" width="120" height="80" as="geometry" />
        </mxCell>
        <mxCell id="sc8BlCsDntj5IzmVDa04-119" style="edgeStyle=orthogonalEdgeStyle;rounded=0;orthogonalLoop=1;jettySize=auto;html=1;entryX=0.633;entryY=0.013;entryDx=0;entryDy=0;entryPerimeter=0;" edge="1" parent="1" source="sc8BlCsDntj5IzmVDa04-112" target="sc8BlCsDntj5IzmVDa04-114">
          <mxGeometry relative="1" as="geometry" />
        </mxCell>
        <mxCell id="sc8BlCsDntj5IzmVDa04-112" value="" style="verticalLabelPosition=bottom;verticalAlign=top;html=1;shadow=0;dashed=0;strokeWidth=1;shape=mxgraph.android.phone2;strokeColor=#c0c0c0;" vertex="1" parent="1">
          <mxGeometry x="-370" y="620" width="200" height="390" as="geometry" />
        </mxCell>
        <mxCell id="sc8BlCsDntj5IzmVDa04-113" style="edgeStyle=orthogonalEdgeStyle;rounded=0;orthogonalLoop=1;jettySize=auto;html=1;entryX=0.502;entryY=0.008;entryDx=0;entryDy=0;entryPerimeter=0;" edge="1" parent="1" source="sc8BlCsDntj5IzmVDa04-94" target="sc8BlCsDntj5IzmVDa04-112">
          <mxGeometry relative="1" as="geometry" />
        </mxCell>
        <mxCell id="sc8BlCsDntj5IzmVDa04-120" style="edgeStyle=orthogonalEdgeStyle;rounded=0;orthogonalLoop=1;jettySize=auto;html=1;entryX=-0.008;entryY=0.696;entryDx=0;entryDy=0;entryPerimeter=0;" edge="1" parent="1" source="sc8BlCsDntj5IzmVDa04-114" target="sc8BlCsDntj5IzmVDa04-102">
          <mxGeometry relative="1" as="geometry">
            <Array as="points">
              <mxPoint x="-430" y="1170" />
              <mxPoint x="-430" y="411" />
            </Array>
          </mxGeometry>
        </mxCell>
        <mxCell id="sc8BlCsDntj5IzmVDa04-114" value="Registiration" style="rounded=1;whiteSpace=wrap;html=1;absoluteArcSize=1;arcSize=14;strokeWidth=2;" vertex="1" parent="1">
          <mxGeometry x="-330" y="1140" width="100" height="100" as="geometry" />
        </mxCell>
        <mxCell id="sc8BlCsDntj5IzmVDa04-123" style="edgeStyle=orthogonalEdgeStyle;rounded=0;orthogonalLoop=1;jettySize=auto;html=1;entryX=0.5;entryY=0;entryDx=0;entryDy=0;" edge="1" parent="1" source="sc8BlCsDntj5IzmVDa04-118" target="sc8BlCsDntj5IzmVDa04-122">
          <mxGeometry relative="1" as="geometry" />
        </mxCell>
        <mxCell id="sc8BlCsDntj5IzmVDa04-118" value="" style="verticalLabelPosition=bottom;verticalAlign=top;html=1;shadow=0;dashed=0;strokeWidth=1;shape=mxgraph.android.phone2;strokeColor=#c0c0c0;" vertex="1" parent="1">
          <mxGeometry x="-30" y="620" width="200" height="390" as="geometry" />
        </mxCell>
        <mxCell id="sc8BlCsDntj5IzmVDa04-121" style="edgeStyle=orthogonalEdgeStyle;rounded=0;orthogonalLoop=1;jettySize=auto;html=1;entryX=0.533;entryY=-0.001;entryDx=0;entryDy=0;entryPerimeter=0;" edge="1" parent="1" source="sc8BlCsDntj5IzmVDa04-91" target="sc8BlCsDntj5IzmVDa04-118">
          <mxGeometry relative="1" as="geometry" />
        </mxCell>
        <mxCell id="sc8BlCsDntj5IzmVDa04-124" style="edgeStyle=orthogonalEdgeStyle;rounded=0;orthogonalLoop=1;jettySize=auto;html=1;entryX=0;entryY=0.602;entryDx=0;entryDy=0;entryPerimeter=0;" edge="1" parent="1" source="sc8BlCsDntj5IzmVDa04-122" target="sc8BlCsDntj5IzmVDa04-102">
          <mxGeometry relative="1" as="geometry">
            <Array as="points">
              <mxPoint x="70" y="1300" />
              <mxPoint x="-450" y="1300" />
              <mxPoint x="-450" y="375" />
            </Array>
          </mxGeometry>
        </mxCell>
        <mxCell id="sc8BlCsDntj5IzmVDa04-122" value="Registiration" style="rounded=1;whiteSpace=wrap;html=1;absoluteArcSize=1;arcSize=14;strokeWidth=2;" vertex="1" parent="1">
          <mxGeometry x="20" y="1110" width="100" height="100" as="geometry" />
        </mxCell>
      </root>
    </mxGraphModel>
  </diagram>
</mxfile>
